<svg width="350" height="394" viewBox="0 0 350 394" fill="none" xmlns="http://www.w3.org/2000/svg">
<path d="M131.169 65.583C131.17 41.6746 150.981 0.00668701 174.89 0.00774486C199.481 0.00883292 218.606 41.6785 218.605 65.5868L218.602 144.143L344.288 215.873C347.703 217.923 349.752 221.338 349.752 225.437L349.75 269.838C349.75 277.352 342.919 282.817 336.088 280.767L218.597 247.29L218.594 316.966L258.212 347.024C260.944 349.073 262.31 351.806 262.31 355.221L262.309 382.545C262.309 390.059 256.161 395.523 249.33 393.474L174.873 371.612L101.098 393.467C94.2671 395.516 87.4364 390.051 87.4367 382.537L87.4379 355.213C87.438 351.798 89.4874 349.066 92.2199 347.016L131.158 316.962L131.161 247.286L14.35 280.753C7.51896 282.802 0.00515731 277.337 0.00548977 269.823L0.00745434 225.421C0.00763568 221.323 2.74017 217.908 6.15573 215.858L131.165 144.139L131.169 65.583Z" fill="#3498DB"/>
</svg>
