<svg width="561" height="234" viewBox="0 0 561 234" fill="none" xmlns="http://www.w3.org/2000/svg">
<path d="M560 156H459V3H503.84V115.628H560V156Z" fill="white"/>
<path d="M451 156H399.736L394.363 138.108H340.637L335.264 156H284L339.07 3H395.93L451 156Z" fill="white"/>
<path d="M360.987 49.6643C360.987 45.839 364.157 39.1722 367.982 39.1724C371.917 39.1725 374.977 45.8396 374.977 49.6649L374.976 62.2338L395.086 73.7106C395.632 74.0385 395.96 74.585 395.96 75.2407L395.96 82.3449C395.96 83.5471 394.867 84.4214 393.774 84.0935L374.975 78.7372L374.975 89.8853L381.314 94.6945C381.751 95.0224 381.969 95.4596 381.969 96.0061L381.969 100.378C381.969 101.58 380.985 102.454 379.892 102.126L367.98 98.6285L356.176 102.125C355.083 102.453 353.99 101.579 353.99 100.377L353.99 96.0048C353.99 95.4583 354.318 95.0212 354.755 94.6933L360.985 89.8846L360.986 78.7366L342.296 84.0912C341.203 84.419 340.001 83.5446 340.001 82.3424L340.001 75.2383C340.001 74.5825 340.438 74.036 340.985 73.7082L360.986 62.2332L360.987 49.6643Z" fill="black"/>
<path d="M209.5 159C163.503 159 128 126.739 128 79.5C128 32.2609 163.503 0 209.5 0C255.497 0 291 32.2609 291 79.5C291 126.739 255.497 159 209.5 159ZM209.5 117.983C231.159 117.983 245.226 100.93 245.226 79.5C245.226 58.0696 231.159 41.0174 209.5 41.0174C187.841 41.0174 173.774 58.0696 173.774 79.5C173.774 100.93 187.841 117.983 209.5 117.983Z" fill="white"/>
<path d="M118 156H0V119.298L56.7652 43.3718H0V3H116.436V39.4723L59.447 115.628H118V156Z" fill="white"/>
<path d="M547.162 234C541.192 234 536.688 231.558 533.921 228.248L535.929 225.914C538.262 228.573 542.061 231.178 547.27 231.178C554.65 231.178 556.767 227.054 556.767 223.961C556.767 213.325 535.06 218.86 535.06 206.216C535.06 200.301 540.378 196.557 546.944 196.557C552.317 196.557 556.441 198.456 559.209 201.658L557.146 203.937C554.542 200.79 550.852 199.379 546.782 199.379C541.952 199.379 538.316 202.146 538.316 206.053C538.316 215.333 560.022 210.232 560.022 223.744C560.022 228.411 556.929 234 547.162 234Z" fill="white"/>
<path d="M528.253 233.349H505.298V197.154H528.253V199.976H508.391V213.379H527.873V216.201H508.391V230.527H528.253V233.349Z" fill="white"/>
<path d="M498.929 233.349H478.254V197.154H481.401V230.527H498.929V233.349Z" fill="white"/>
<path d="M455.921 234C446.642 234 441.812 228.356 441.812 219.457V197.154H444.96V219.403C444.96 226.728 448.812 231.178 455.921 231.178C463.03 231.178 466.883 226.728 466.883 219.403V197.154H470.03V219.457C470.03 228.411 465.255 234 455.921 234Z" fill="white"/>
<path d="M415.798 233.349H404.24V197.154H415.798C427.031 197.154 434.086 205.348 434.086 215.278C434.086 225.318 427.031 233.349 415.798 233.349ZM415.798 230.527C425.349 230.527 430.83 223.744 430.83 215.278C430.83 206.813 425.403 199.976 415.798 199.976H407.333V230.527H415.798Z" fill="white"/>
<path d="M379.024 234C368.388 234 361.442 225.86 361.442 215.278C361.442 204.697 368.388 196.557 379.024 196.557C389.606 196.557 396.606 204.697 396.606 215.278C396.606 225.86 389.606 234 379.024 234ZM379.024 231.178C387.707 231.178 393.35 224.395 393.35 215.278C393.35 206.108 387.707 199.379 379.024 199.379C370.287 199.379 364.698 206.108 364.698 215.278C364.698 224.395 370.287 231.178 379.024 231.178Z" fill="white"/>
<path d="M353.789 233.349H350.641V201.061L337.455 233.349H336.261L323.02 201.061V233.349H319.927V197.154H324.54L336.858 227.271L349.122 197.154H353.789V233.349Z" fill="white"/>
<path d="M296.864 233.349H293.825L271.034 202.255V233.349H267.941V197.154H271.088L293.771 227.814V197.154H296.864V233.349Z" fill="white"/>
<path d="M242.725 234C232.089 234 225.143 225.86 225.143 215.278C225.143 204.697 232.089 196.557 242.725 196.557C253.307 196.557 260.307 204.697 260.307 215.278C260.307 225.86 253.307 234 242.725 234ZM242.725 231.178C251.407 231.178 257.051 224.395 257.051 215.278C257.051 206.108 251.407 199.379 242.725 199.379C233.988 199.379 228.399 206.108 228.399 215.278C228.399 224.395 233.988 231.178 242.725 231.178Z" fill="white"/>
<path d="M217.51 233.349H214.417V197.154H217.51V233.349Z" fill="white"/>
<path d="M196.159 233.349H193.012V199.976H181.182V197.154H207.989V199.976H196.159V233.349Z" fill="white"/>
<path d="M182.206 233.349H178.625L175.043 224.449H155.888L152.306 233.349H148.725L163.539 197.154H167.392L182.206 233.349ZM174.012 221.628L165.493 200.464L156.919 221.628H174.012Z" fill="white"/>
<path d="M146.045 233.349H125.37V197.154H128.518V230.527H146.045V233.349Z" fill="white"/>
<path d="M103.037 234C93.758 234 88.9283 228.356 88.9283 219.457V197.154H92.0757V219.403C92.0757 226.728 95.9286 231.178 103.037 231.178C110.146 231.178 113.999 226.728 113.999 219.403V197.154H117.146V219.457C117.146 228.411 112.371 234 103.037 234Z" fill="white"/>
<path d="M79.9184 233.349H76.771V201.061L63.5845 233.349H62.3907L49.1499 201.061V233.349H46.0568V197.154H50.6694L62.9876 227.271L75.2516 197.154H79.9184V233.349Z" fill="white"/>
<path d="M37.0672 233.349H33.9741V197.154H37.0672V233.349Z" fill="white"/>
<path d="M13.6759 234C7.70674 234 3.20271 231.558 0.435181 228.248L2.443 225.914C4.77641 228.573 8.57498 231.178 13.7845 231.178C21.1645 231.178 23.2809 227.054 23.2809 223.961C23.2809 213.325 1.57475 218.86 1.57475 206.216C1.57475 200.301 6.89276 196.557 13.4589 196.557C18.8311 196.557 22.9553 198.456 25.7228 201.658L23.6607 203.937C21.056 200.79 17.366 199.379 13.2961 199.379C8.46645 199.379 4.83067 202.146 4.83067 206.053C4.83067 215.333 26.5368 210.232 26.5368 223.744C26.5368 228.411 23.4437 234 13.6759 234Z" fill="white"/>
</svg>
